<svg width="525" height="599" viewBox="0 0 525 599" fill="none" xmlns="http://www.w3.org/2000/svg">
<g filter="url(#filter0_f_21_514)">
<path d="M154.028 214.747C159.695 189.58 173.228 137.747 182.028 131.747C193.028 124.247 212.028 133.247 267.028 143.747C322.028 154.247 319.528 73.7468 323.028 165.247C323.229 170.494 323.525 175.53 323.904 180.355C328.506 189.498 336.288 205.999 342.893 221.795C380.099 286.452 418.752 274.412 396.528 320.247C372.528 369.747 358.028 361.747 334.028 408.247C310.028 454.747 377.528 495.747 316.528 468.747C255.528 441.747 190.528 453.747 190.528 383.747C190.528 313.747 217.028 291.747 190.528 287.747C164.028 283.747 188.528 333.747 154.028 281.247C126.428 239.247 120.528 219.414 121.028 214.747H154.028Z" fill="#2B4487" fill-opacity="0.42"/>
</g>
<defs>
<filter id="filter0_f_21_514" x="0" y="0" width="524.058" height="598.359" filterUnits="userSpaceOnUse" color-interpolation-filters="sRGB">
<feFlood flood-opacity="0" result="BackgroundImageFix"/>
<feBlend mode="normal" in="SourceGraphic" in2="BackgroundImageFix" result="shape"/>
<feGaussianBlur stdDeviation="60.5" result="effect1_foregroundBlur_21_514"/>
</filter>
</defs>
</svg>
