<svg width="28" height="25" viewBox="0 0 28 25" fill="none" xmlns="http://www.w3.org/2000/svg">
<path fill-rule="evenodd" clip-rule="evenodd" d="M3.05455 6.08594C3.05455 9.39965 5.78968 12.0859 9.16364 12.0859C12.5376 12.0859 15.2727 9.39965 15.2727 6.08594C15.2727 2.77223 12.5376 0.0859375 9.16364 0.0859375C5.78968 0.0859375 3.05455 2.77223 3.05455 6.08594ZM5.09091 6.08594C5.09091 8.29508 6.91433 10.0859 9.16364 10.0859C11.4129 10.0859 13.2364 8.29508 13.2364 6.08594C13.2364 3.8768 11.4129 2.08594 9.16364 2.08594C6.91433 2.08594 5.09091 3.8768 5.09091 6.08594Z" fill="#ABAFD1"/>
<path fill-rule="evenodd" clip-rule="evenodd" d="M0 19.0859C0 23.2034 1.61738 24.0859 9.16364 24.0859C16.7099 24.0859 18.3273 23.2034 18.3273 19.0859C18.3273 14.9684 16.7099 14.0859 9.16364 14.0859C1.61738 14.0859 0 14.9684 0 19.0859ZM2.03636 19.0859C2.03636 20.0233 2.13468 20.5505 2.26132 20.8614C2.35522 21.0919 2.47241 21.2352 2.74092 21.3817C3.08304 21.5684 3.69421 21.765 4.79777 21.8988C5.88499 22.0306 7.30186 22.0859 9.16364 22.0859C11.0254 22.0859 12.4423 22.0306 13.5295 21.8988C14.6331 21.765 15.2442 21.5684 15.5864 21.3817C15.8549 21.2352 15.9721 21.0919 16.066 20.8614C16.1926 20.5505 16.2909 20.0233 16.2909 19.0859C16.2909 18.1485 16.1926 17.6214 16.066 17.3105C15.9721 17.0799 15.8549 16.9367 15.5864 16.7902C15.2442 16.6035 14.6331 16.4069 13.5295 16.2731C12.4423 16.1413 11.0254 16.0859 9.16364 16.0859C7.30186 16.0859 5.88499 16.1413 4.79777 16.2731C3.69421 16.4069 3.08304 16.6035 2.74092 16.7902C2.47241 16.9367 2.35522 17.0799 2.26132 17.3105C2.13468 17.6214 2.03636 18.1485 2.03636 19.0859Z" fill="#ABAFD1"/>
<path d="M17.3092 2.08594C20.3802 2.08594 22.4001 4.59976 22.4001 7.08594C22.4001 9.57212 20.3802 12.0859 17.3092 12.0859C16.7469 12.0859 16.291 11.6382 16.291 11.0859C16.291 10.5337 16.7469 10.0859 17.3092 10.0859C19.1255 10.0859 20.3637 8.59976 20.3637 7.08594C20.3637 5.57212 19.1255 4.08594 17.3092 4.08594C16.7469 4.08594 16.291 3.63822 16.291 3.08594C16.291 2.53365 16.7469 2.08594 17.3092 2.08594Z" fill="#767BFA"/>
<path d="M19.3456 13.0859C18.7832 13.0859 18.3274 13.5337 18.3274 14.0859C18.3274 14.6382 18.7832 15.0859 19.3456 15.0859C22.1865 15.0859 23.8817 15.2245 24.8686 15.6326C25.3151 15.8172 25.5519 16.0334 25.6968 16.2773C25.8523 16.5392 25.9637 16.9378 25.9637 17.5859C25.9637 18.2303 25.8537 18.6539 25.7035 18.9394C25.5611 19.21 25.3532 19.4141 25.0391 19.5786C24.3363 19.9467 23.1799 20.0859 21.3819 20.0859C20.8196 20.0859 20.3637 20.5337 20.3637 21.0859C20.3637 21.6382 20.8196 22.0859 21.3819 22.0859C23.1476 22.0859 24.7912 21.9751 25.9974 21.3433C26.6379 21.0078 27.1618 20.5244 27.5126 19.8575C27.8556 19.2055 28.0001 18.4415 28.0001 17.5859C28.0001 16.734 27.857 15.9452 27.4557 15.2696C27.0438 14.576 26.4215 14.1047 25.6589 13.7893C24.2276 13.1974 22.1046 13.0859 19.3456 13.0859Z" fill="#767BFA"/>
</svg>
